<svg width="1335" height="1100" viewBox="0 0 1335 1100" fill="none" xmlns="http://www.w3.org/2000/svg">
<path d="M658.021 428.642C719.514 408.144 772.467 382.523 781.008 444.015C669.978 543.088 787.84 527.714 830.544 537.963C900.578 613.122 830.477 703.654 868.944 720.735C895.733 732.631 856.643 748.67 839.095 777.671C800.472 790.394 609.022 851.348 553.824 828.349C519.524 823.667 450.249 785.845 413.756 720.735C569.197 763.439 512.363 594.333 494.039 637.53C477.575 676.34 367.636 553.337 540.159 502.092C593.111 560.169 658.021 435.474 658.021 428.642Z" fill="url(#paint0_linear_18_13)"/>
<path d="M353.97 580.667C369.869 580.667 384.502 587.048 396.11 597.749C393.395 595.37 377.884 606.254 377.884 631.912C377.884 696.821 447.919 737.817 353.97 741.233C316.235 741.233 285.644 705.289 285.644 660.95C285.644 616.611 316.235 580.667 353.97 580.667Z" fill="url(#paint1_linear_18_13)"/>
<path d="M923.815 472.276C962.34 456.205 1013.48 469.319 1033.76 517.936C1054.04 566.553 1030.07 614.362 991.544 630.434C953.02 646.505 922.779 576.955 902.497 528.338C882.215 479.722 885.293 488.347 923.815 472.276Z" fill="url(#paint2_linear_18_13)"/>
<path d="M775.458 700.237C746.184 724.151 739.147 749.773 678.519 749.773C617.891 749.773 568.712 727.646 568.712 708.778C568.712 689.91 593.112 666.074 671.17 684.864C769.969 645.576 775.458 681.369 775.458 700.237Z" fill="#FE86A8"/>
<g filter="url(#filter0_g_18_13)">
<path d="M490.622 635.327C532.131 635.327 565.781 666.682 565.781 705.361C565.781 744.04 532.131 775.395 490.622 775.395C449.113 775.395 415.464 744.04 415.464 705.361C415.464 666.682 449.114 635.327 490.622 635.327Z" fill="#CA1D4F" fill-opacity="0.82"/>
<path d="M862.999 607.997C904.508 607.997 938.158 639.352 938.158 678.031C938.158 716.71 904.508 748.065 862.999 748.065C821.49 748.065 787.841 716.709 787.841 678.031C787.841 639.352 821.49 607.997 862.999 607.997Z" fill="#CA1D4F" fill-opacity="0.82"/>
</g>
<path fill-rule="evenodd" clip-rule="evenodd" d="M701.656 59.6808C765.633 -51.3464 746.641 71.2927 729.763 129.715C707.558 206.582 791.257 233.912 861.291 184.376C931.324 134.841 913.512 235.624 933.033 276.619C941.523 294.441 984.556 264.704 1037.23 240.748C1105.71 209.605 1194.38 254.413 1194.38 298.825C1194.38 343.236 1186 357.581 1206.34 373.984C1337.86 403.022 1197.8 433.769 1218.29 561.88C1352.45 587.846 1280.96 658.886 1241.91 698.869C1297.02 652.57 1332.68 761.252 1262.71 773.691C1274.66 949.629 1284.23 897.503 1218.29 935.965C1207.19 942.443 1186.43 945.85 1166.84 933.083C1165.45 933.025 1164.04 932.953 1162.62 932.873C1161.5 933.512 1159.51 933.308 1156.94 932.502C1135.37 930.917 1112.27 927.425 1098.72 927.425C1071.39 927.425 1028.79 953.047 1021.86 990.626C868.869 1120.73 926.721 1058.86 830.544 1002.58C721.223 938.61 685.352 1156.31 541.867 1062.56C525.457 1050.62 510.034 1036.49 500.094 1013.42C493.404 1014.09 486.622 1014.45 479.833 1014.52L471.205 1014.57C450.778 1014.81 430.438 1016.09 413.545 1013.37C393.112 1033.72 370.49 1047.59 350.554 1052.12C292.477 1076.58 233.798 1058.23 275.395 966.712C275.395 874.472 161.181 947.272 114.829 925.713C111.413 758.316 49.9194 939.378 10.632 754.898C22.5899 660.952 126.169 699.615 39.6706 577.25C6.06046 529.701 138.743 491.843 138.743 459.388C74.3378 328.709 175.119 276.617 286.148 363.732C364.723 39.1848 501.269 282.455 492.331 240.745C487.882 219.966 531.116 53.5723 629.87 200.513C633.042 192.14 639.838 186.406 649.48 184.376C615.318 67.6649 662.321 110.929 690.476 155.341C685.352 112.637 693.963 76.3287 701.656 59.6808ZM736.596 490.138C758.802 467.932 837.377 346.653 712.682 414.979C668.782 433.769 653.465 398.615 649.48 423.52C631.808 533.969 536.687 507.302 476.864 515.563C483.102 533.413 477.174 546.873 447.919 549.92C447.919 592.624 414.179 661.998 502.579 633.623C521.368 707.072 473.54 724.151 408.631 712.194C288.888 586.463 490.488 595.825 327.28 581.678C285.723 612.628 263.743 655.709 294.185 723.514C324.932 741.233 328.348 768.563 403.507 729.276C423.517 747.138 438.71 765.609 449.824 784.254C477.084 789.201 509.182 802.957 536.689 822.373C557.393 823.175 586.576 827.547 627.274 836.893C708.19 809.893 777.845 806.365 830.544 783.94C837.891 733.429 869.338 725.874 897.162 727.297C926.054 710.882 940.383 706.883 946.799 708.391C971.123 591.454 1050.17 625.441 1037.23 601.168C1081.64 536.258 975.682 419.876 890.33 485.014C868.365 501.781 979.153 614.834 946.699 679.743C904.345 764.447 799.801 666.079 825.42 643.872C835.672 660.952 914.241 672.906 851.042 551.632C826.928 503.361 775.883 565.295 736.596 490.138Z" fill="url(#paint3_linear_18_13)"/>
<path d="M414.408 722.278C456.808 865.023 791.552 862.766 877.785 722.278" stroke="#BE1E4C" stroke-width="20.4978"/>
<path d="M963.78 638.745C1146.55 601.166 979.154 397.896 880.734 498.51" stroke="#BE1E4C" stroke-width="20.4978"/>
<path d="M394.144 600.414C231.869 504.757 243.36 815.103 412.7 723.986" stroke="#BE1E4C" stroke-width="20.4978"/>
<path d="M631.113 678.678C631.113 678.678 631.113 678.678 631.113 678.678C632.038 679.646 632.89 680.606 633.719 681.674C641.197 690.891 643.995 705.339 638.215 717.609C632.716 729.967 619.54 737.778 607.385 738.053C606.017 738.112 604.689 738.086 603.341 737.996C603.341 737.996 603.341 737.996 603.341 737.996C604.555 737.377 605.701 736.74 606.842 736.072C617.039 730.071 624.142 722.215 628.227 713.31C632.335 704.402 633.559 694.008 631.799 682.532C631.596 681.239 631.386 679.992 631.113 678.678Z" fill="#BE1E4C"/>
<path d="M722.526 675.598C722.526 675.598 722.526 675.598 722.526 675.598C721.601 676.567 720.749 677.527 719.919 678.595C712.442 687.811 709.644 702.26 715.424 714.53C720.923 726.888 734.098 734.698 746.254 734.974C747.622 735.033 748.95 735.007 750.298 734.917C750.298 734.917 750.298 734.917 750.298 734.917C749.083 734.297 747.938 733.661 746.797 732.993C736.6 726.992 729.496 719.136 725.412 710.231C721.303 701.323 720.08 690.929 721.84 679.452C722.043 678.159 722.253 676.913 722.526 675.598Z" fill="#BE1E4C"/>
<path d="M681.609 687.971C680.316 686.879 679.024 685.787 677.731 684.695C676.811 685.469 675.934 686.262 675.073 687.11C667.344 694.661 662.228 705.338 661.589 716.474C660.861 727.508 664.9 739.397 673.681 746.357C674.641 747.122 675.645 747.82 676.688 748.446C677.814 747.14 678.94 745.835 680.066 744.53C679.426 743.733 678.837 742.915 678.291 742.077C673.416 734.496 672.055 725.659 672.54 716.897C673.077 708.109 675.56 699.263 680.035 690.785C680.538 689.836 681.054 688.91 681.609 687.971Z" fill="#BE1E4C"/>
<path d="M771.411 708.371C808.207 645.322 699.749 682.236 684.863 685.479C669.978 688.723 574.223 646.098 570.269 701.433C566.435 755.086 734.615 771.419 771.411 708.371Z" stroke="#BE1E4C" stroke-width="13.6652"/>
<path d="M692.434 664.15C692.434 664.15 692.434 664.15 692.434 664.15C691.076 664.277 689.675 664.305 688.328 664.265C682.212 664.033 676.134 662.87 670.612 660.937C669.258 660.441 667.902 659.856 666.917 659.195C666.652 659.017 666.475 658.873 666.317 658.718C666.18 658.586 666.128 658.457 666.202 658.561C666.237 658.618 666.291 658.741 666.305 658.92C666.322 659.095 666.281 659.296 666.243 659.397C666.147 659.627 666.146 659.566 666.283 659.479C667.725 658.527 671.155 657.808 673.95 657.338C674.648 657.221 675.394 657.099 676.19 656.975C680.692 656.277 685.148 655.597 689.613 655.415C691.837 655.333 694.099 655.377 696.208 655.756C698.255 656.119 700.698 657.022 700.68 658.55C700.552 660.241 698.256 661.749 696.272 662.7C695.054 663.282 693.771 663.753 692.434 664.15C692.434 664.15 692.434 664.15 692.434 664.15C693.813 663.942 695.161 663.666 696.49 663.258C698.641 662.467 701.335 661.797 702.235 658.732C702.517 657.084 701.319 655.729 700.294 654.994C699.214 654.209 698.06 653.709 696.875 653.29C694.559 652.486 692.141 652.056 689.758 651.781C684.983 651.254 680.215 651.368 675.489 651.939C674.646 652.043 673.85 652.158 673.099 652.285C669.929 652.938 666.867 653.163 663.246 655.679C662.742 656.114 662.242 656.566 661.82 657.541C661.405 658.444 661.507 659.82 661.947 660.602C662.813 662.146 663.731 662.568 664.586 663.092C666.246 663.988 667.843 664.454 669.442 664.852C675.794 666.298 682.204 666.388 688.41 665.235C689.765 664.966 691.15 664.611 692.434 664.15ZM692.434 664.15" fill="#BE1E4C"/>
<path d="M610.972 560.099C611.236 560.242 611.473 560.45 611.619 560.719C611.765 560.987 611.81 561.291 611.74 561.575C611.67 561.859 611.49 562.107 611.236 562.277C610.982 562.448 610.676 562.522 610.375 562.526C610.375 562.526 610.375 562.526 610.375 562.526C608.895 562.548 607.409 562.547 605.939 562.526C598.144 562.418 590.555 561.706 583.083 560.299C565.195 556.948 547.209 553.554 529.241 549.984C527.868 549.711 526.372 549.422 525.017 549.155C524.443 549.045 523.913 548.741 523.547 548.275C523.182 547.81 523.01 547.227 523.071 546.647C523.132 546.068 523.421 545.533 523.875 545.153C524.329 544.774 524.91 544.585 525.495 544.597C525.495 544.597 525.495 544.597 525.495 544.597C526.919 544.626 528.44 544.682 529.854 544.733C548.294 545.474 566.695 547.479 584.856 550.881C592.437 552.308 599.864 554.694 606.981 558.077C608.323 558.715 609.661 559.391 610.972 560.099Z" fill="#D43865"/>
<path d="M718.958 556.099C718.693 556.242 718.457 556.45 718.311 556.719C718.164 556.987 718.12 557.291 718.19 557.575C718.26 557.859 718.44 558.107 718.694 558.277C718.948 558.448 719.254 558.522 719.555 558.526C719.555 558.526 719.555 558.526 719.555 558.526C721.035 558.548 722.521 558.547 723.991 558.526C731.785 558.418 739.375 557.706 746.846 556.299C764.734 552.948 782.721 549.554 800.689 545.984C802.061 545.711 803.558 545.422 804.912 545.155C805.487 545.045 806.017 544.741 806.382 544.275C806.748 543.81 806.919 543.227 806.859 542.647C806.798 542.068 806.509 541.533 806.055 541.153C805.601 540.774 805.019 540.585 804.435 540.597C804.435 540.597 804.435 540.597 804.435 540.597C803.011 540.626 801.489 540.682 800.076 540.733C781.636 541.474 763.235 543.479 745.074 546.881C737.493 548.308 730.066 550.694 722.948 554.077C721.607 554.715 720.269 555.391 718.958 556.099Z" fill="#D43865"/>
<path d="M513.547 593.129C516.063 594.168 518.583 595.191 521.108 596.196C543.492 605.11 566.237 612.693 589.341 618.943C589.341 618.943 589.341 618.943 589.341 618.943C589.363 618.949 589.385 618.955 589.407 618.961L590.459 608.898C565.856 610.278 541.33 613.04 516.882 617.186C514.203 617.64 511.526 618.111 508.849 618.599C511.563 618.784 514.277 618.953 516.99 619.106C541.748 620.497 566.428 620.506 591.032 619.131L592.084 609.068C592.062 609.062 592.04 609.056 592.018 609.05C592.018 609.05 592.018 609.05 592.018 609.05C568.913 602.799 545.449 597.88 521.624 594.292C518.936 593.888 516.244 593.5 513.547 593.129Z" fill="#BE1E4C"/>
<path d="M822.702 578.302C820.32 579.621 817.932 580.923 815.538 582.209C794.312 593.61 772.578 603.728 750.334 612.565C750.334 612.565 750.334 612.565 750.334 612.565C750.312 612.573 750.291 612.582 750.27 612.59L748.081 602.712C772.681 601.286 797.362 601.243 822.123 602.582C824.836 602.729 827.55 602.892 830.265 603.072C827.589 603.565 824.912 604.042 822.234 604.501C797.795 608.698 773.275 611.512 748.675 612.944L746.486 603.065C746.507 603.057 746.528 603.048 746.55 603.04C746.55 603.04 746.55 603.04 746.55 603.04C768.794 594.203 791.547 586.649 814.81 580.376C817.434 579.668 820.065 578.977 822.702 578.302Z" fill="#BE1E4C"/>
<path d="M814.585 567.684C812.102 569.403 809.611 571.108 807.112 572.796C785.125 587.652 762.498 601.309 739.23 613.768L737.093 604.132C737.295 604.143 737.497 604.154 737.7 604.165C737.7 604.165 737.7 604.165 737.7 604.165C765.066 605.652 792.357 608.525 819.572 612.783C822.552 613.249 825.53 613.732 828.507 614.231C825.493 614.405 822.48 614.562 819.468 614.703C791.951 615.987 764.51 615.886 737.144 614.399C737.144 614.399 737.144 614.399 737.144 614.399C736.941 614.388 736.739 614.377 736.537 614.366L718.23 613.365L734.399 604.73C757.687 592.307 781.614 581.083 806.182 571.056C808.975 569.917 811.776 568.793 814.585 567.684Z" fill="#BE1E4C"/>
<path d="M520.404 581.657C523.066 583.084 525.735 584.493 528.41 585.887C551.943 598.147 575.976 609.143 600.509 618.877L601.537 609.06C601.338 609.094 601.138 609.128 600.938 609.162C600.938 609.162 600.938 609.162 600.938 609.162C573.918 613.75 547.131 619.707 520.576 627.031C517.669 627.833 514.765 628.651 511.863 629.486C514.878 629.316 517.889 629.129 520.898 628.927C548.382 627.075 575.634 623.854 602.654 619.266C602.654 619.266 602.654 619.266 602.654 619.266C602.854 619.232 603.053 619.198 603.253 619.164L621.328 616.089L604.281 609.348C579.733 599.653 554.684 591.221 529.136 584.053C526.232 583.238 523.321 582.44 520.404 581.657Z" fill="#BE1E4C"/>
<path d="M397.835 593.771C392.164 589.959 386.494 586.146 380.824 582.334C377.296 587.784 374.681 592.75 372.108 598.18C363.25 617.543 356.414 640.565 363.884 664.354L363.519 662.893C371.129 704.694 412.364 737.389 453.746 734.954C480.494 735.986 509.804 719.009 519.531 692.517C527.601 672.823 523.981 648.639 509.792 633.898C505.578 629.48 500.537 626.051 495.207 623.924C495.207 623.924 495.207 623.924 495.207 623.924C498.588 628.566 501.015 633.469 502.668 638.383C507.972 654.684 506.014 670.861 500.513 684.869C493.309 703.548 474.56 714.874 453.746 714.456C419.566 716.08 390.301 691.233 383.717 659.398L383.352 657.937C378.289 642.678 382.804 623.645 390.665 606.887C392.799 602.333 395.422 597.492 397.835 593.771Z" fill="url(#paint4_radial_18_13)"/>
<path d="M661.347 195.178C657.686 187.898 654.454 181.017 651.276 173.849C646.491 162.912 642.242 151.928 639.874 141.298C637.23 130.985 638.373 119.387 641.498 117.793C642.887 116.095 649.208 116.292 655.291 120.171C661.445 123.892 667.032 129.654 671.835 136.279L691.982 164.102L690.374 129.788C680.026 70.9094 769.371 -41.6217 737.202 76.443C731.836 100.185 726.267 124.379 721.677 149.546C720.381 156.954 719.065 164.758 717.716 172.972C722.091 165.89 726.097 159.027 729.74 152.38C741.912 129.654 751.534 105.987 757.205 80.922C760.997 62.4596 765.134 44.8749 762.187 23.1283C761.049 17.6114 759.868 11.4134 753.536 5.18798C746.812 -1.51239 735.588 -0.705431 730.027 1.9516C718.414 7.117 711.805 14.8509 705.433 22.4787C681.569 53.6777 668.61 91.3444 669.899 130.748L688.437 124.257C682.438 116.055 675.448 108.468 665.854 102.604C656.901 97.2882 642.027 91.5725 628.484 101.957C612.711 117.626 619.033 134.728 623.128 146.601C628.145 158.996 635.599 169.371 643.93 178.639C649.4 184.71 655.081 189.969 661.347 195.178Z" fill="#E3567E"/>
<path d="M829.959 532.029C826.873 527.244 823.787 522.459 820.701 517.673C814.861 520.146 809.3 522.268 803.774 524.077C803.495 524.169 803.216 524.259 802.938 524.348C797.249 526.176 791.394 527.12 785.621 527.019C754.232 528.569 730.326 487.898 757.31 469.627C773.228 456.432 792.851 435.109 783.27 406.649C778.242 393.096 762.822 384.498 749.418 385.628C735.793 386.389 724.824 393.352 716.469 401.283C703.361 414.395 681.828 416.55 666.635 406.707C656.202 400.025 648.338 390.073 646.257 375.697C645.36 369.531 645.56 362.773 646.679 355.744C646.679 355.744 646.679 355.744 646.679 355.744C641.868 360.973 637.927 367.325 635.81 374.761C630.224 391.991 639.106 414.172 655.635 424.003C678.616 439.071 711.544 435.303 730.622 416.11C742.515 403.749 760.213 402.963 764.273 414.347C769.122 425.674 758.535 442.809 744.442 453.672C726.384 466.329 718.792 495.998 730.892 515.746C741.707 535.804 763.691 547.312 785.27 547.513C793.488 547.658 801.605 546.308 809.201 543.865C809.572 543.746 809.943 543.623 810.313 543.496C817.639 540.975 824.268 536.99 829.959 532.029Z" fill="#D83563"/>
<path d="M726.347 157.046C727.515 168.611 730.884 180.232 736.851 190.843C746.014 207.435 763.116 222.157 784.629 224.42C806.197 226.897 826.652 216.28 840.965 202.785C842.826 201.064 844.651 199.527 846.634 198.014C861.515 186.427 881.78 182.234 898.712 188.33C916.043 194.213 925.291 210.557 916.982 226.019C911.083 237.573 908.254 255.065 917.65 268.688C926.858 282.12 942.116 286.855 955.294 287.442C982.351 288.285 1005.84 275.081 1023.73 258.487C1048.06 237.356 1089.35 234.697 1123 243.079C1159.8 251.724 1193.05 278.422 1192.97 319.589C1193.33 330.658 1191.91 341.986 1189.26 353.484C1194.71 343.023 1198.9 332.015 1200.95 320.169C1211.73 275.678 1170.54 231.427 1128.09 223.224C1088.9 214.224 1044.66 214.518 1009.74 243.502C994.667 257.671 975.043 267.713 956.207 266.964C936.543 266.366 926.168 252.371 935.42 234.975C941.409 223.312 942.745 207.107 935.946 194.35C929.403 181.568 917.683 173.344 905.61 169.028C881.149 160.264 853.635 166.608 834.213 181.708C831.634 183.675 829.298 185.677 826.957 187.908C804.305 212.407 766.667 214.475 743.613 186.099C736.351 177.833 730.532 167.891 726.347 157.046Z" fill="#D83563"/>
<path d="M1181.56 646.29C1185.56 655.351 1191.17 663.801 1199.23 670.547C1215.79 685.437 1243.99 686.227 1263.28 675.088C1285.86 662.478 1303.71 642.453 1309.64 615.577C1311.93 604.296 1310.33 589.72 1301.05 579.565C1291.87 569.417 1279.63 565.91 1268.81 564.413C1237.28 561.92 1215.97 538.501 1224.27 508.671C1226.82 497.421 1232.22 486.21 1239.49 477.729C1251.43 463.735 1263.47 449.026 1271.99 431.109C1275.89 422.224 1279.7 411.793 1276.29 399.084C1272.58 386.235 1261.21 379.531 1252.53 376.179C1234.37 369.41 1217.07 368.422 1200.78 363.884C1191.92 361.412 1183.18 358.592 1176.49 352.831C1173.85 350.525 1171.64 347.747 1170.08 344.413C1167.71 339.313 1165.62 334.053 1164.11 328.575C1164.63 334.235 1165.65 339.892 1166.99 345.484C1167.97 349.506 1169.86 353.29 1172.42 356.599C1178.95 364.926 1188.35 369.844 1197.49 373.588C1229.54 386.19 1273.13 392.772 1253.36 422.539C1246.68 436.779 1235.36 451.094 1223.99 464.32C1214.04 476.04 1207.67 489.554 1204.27 504.16C1200.05 522.124 1201.74 544.326 1215.36 560.357C1228.82 576.342 1248.49 582.351 1266.11 584.732C1283.49 586.845 1292.73 596.074 1289.5 611.805C1285.85 629.859 1270.9 647.741 1253.64 657C1238.63 665.045 1222.02 667.925 1205.08 661.041C1196.98 657.818 1189.12 652.717 1181.56 646.29Z" fill="url(#paint5_radial_18_13)"/>
<path d="M503.902 630.009C502.96 629.368 502.018 628.728 501.077 628.088C496.146 633.29 490.045 637.086 484.259 637.908C478.071 638.803 473.087 636.533 468.553 633.071C464.029 629.586 460.146 624.598 456.832 619.101C448.286 604.858 446.202 586.196 450.944 569.807C465.683 540.12 509.497 508.231 543.089 523.527C607.737 541.334 657.954 484.095 663.217 426.815C663.416 418.406 662.106 409.706 658.948 401.581C652.576 404.047 646.204 406.514 639.832 408.98C641.93 414.385 642.864 420.286 642.724 426.358C641.02 469.572 590.922 519.069 550.894 504.573C500.051 486.019 453.636 519.747 431.228 564.199C425.073 585.842 427.481 609.843 439.274 629.679C443.943 637.391 450.586 644.373 459.416 648.733C468.115 653.249 480.136 653.495 488.406 648.397C496.261 643.782 500.642 636.816 503.902 630.009Z" fill="url(#paint6_linear_18_13)"/>
<path d="M345.43 1055.53C345.43 1055.53 345.43 1055.53 345.43 1055.53C360.538 1048.89 375.538 1042.35 390.386 1036.64C409.683 1029.26 429.026 1023 447.875 1021.64C480.464 1018.31 508.534 1039.91 535.159 1063.28C552.718 1078.26 572.311 1092.34 597.043 1097.73C622.127 1103.71 648.999 1093.29 667.115 1078.76C703.773 1050.52 728.88 1008.83 767.177 1002.46C794.174 997.708 819.367 1009.2 841.361 1027.97C863.295 1044.55 886.4 1075.94 926.075 1070.78C990.277 1057.2 1015.59 995.528 1053.6 964.681C1070.13 952.363 1088.47 942.909 1107.75 939.935C1117.11 938.477 1126.55 938.036 1136.26 938.675C1143.73 939.155 1151.34 940.3 1159.27 941.786C1163.25 942.517 1167.29 943.355 1171.52 943.961C1173.7 944.264 1175.81 944.505 1178.14 944.385C1180.35 944.333 1183.23 943.291 1183.76 941.088C1182.16 942.669 1180.27 942.135 1178.58 941.43C1176.82 940.676 1175.2 939.646 1173.47 938.563C1170.1 936.405 1166.64 934.085 1163.01 931.94C1155.77 927.631 1147.82 923.957 1139.26 921.63C1128.17 918.565 1116.13 917.865 1104.61 919.679C1080.8 923.387 1059.63 934.648 1041.36 948.241C996.96 986.593 971.956 1041.44 922.911 1050.53C875.191 1056.42 838.042 966.388 764.093 982.2C711.611 992.772 687.918 1038.36 654.714 1062.44C622.318 1091.45 580.062 1076.87 548.575 1047.78C522.39 1024.81 487.996 997.084 446.419 1001.19C423.073 1002.95 402.233 1012.55 384.038 1024.22C370.011 1033.29 357.21 1043.98 345.43 1055.53Z" fill="#C01D4C"/>
<path d="M343.722 987.208C352.561 1003.57 351.293 1020.54 340.218 1028.7C333.259 1034.55 323.742 1038.28 314.105 1040.07C298.738 1043.03 281.984 1038.75 275.837 1027.35C269.209 1015.97 271.991 998.36 278.147 982.297C281.938 971.65 285.735 960.812 283.329 946.782C282.107 939.908 277.601 932.329 271.643 928.067C265.607 923.609 259.527 921.746 253.532 920.462C230.364 916.414 210.136 919.757 189.876 921.131C170.021 922.646 149.285 924.516 133.163 919.771C116.938 915.475 114.943 901.128 119.656 882.046C121.988 873.044 123.048 859 113.835 848.845C104.877 839.368 95.0679 837.219 86.6215 834.628C69.6652 830.104 53.8574 827.174 41.9365 819.468C17.374 805.023 17.9665 769.025 24.1088 738.066C28.3231 714.287 49.0122 697.061 68.6968 675.401C78.1585 664.924 89.0526 647.569 84.9876 629.179C81.2133 611.606 70.819 599.741 60.7157 588.93C51.3826 579.282 42.8798 567.816 41.6171 557.92C40.0217 548.369 46.9061 539.327 57.5944 531.131C78.7072 514.551 107.626 504.76 129.73 479.123C132.563 475.584 135.134 471.432 136.95 466.931C145.926 445.44 133.851 424.357 119.954 413.269C125.021 431.315 125.749 447.562 118.961 458.639C117.507 461.249 115.711 463.834 113.716 466.329C97.856 485.464 69.6517 496.276 45.0289 514.937C33.1025 523.864 18.1512 540.14 21.2969 560.612C24.3055 579.396 35.6106 592.022 45.9557 603.153C55.0221 612.57 62.9463 623.097 64.8564 633.039C66.9679 642.619 61.82 652.181 53.2076 661.976C36.3889 681.105 10.1893 701.463 3.98779 734.153C-2.11159 766.177 -6.20238 813.156 30.8738 836.724C62.1927 857.188 111.823 850.42 99.7531 877.143C97.1653 888.218 95.2335 899.76 98.9436 912.789C102.389 926.191 115.702 936.307 127.032 939.331C150.245 945.807 171.154 942.896 191.548 941.56C211.726 940.031 232.432 937.389 249.388 940.537C258.088 942.421 262.186 945.33 263.242 950.863C264.501 956.959 262.379 966.119 258.979 975.037C252.339 993.448 246.32 1015.67 258.062 1037.56C270.889 1059.68 297.599 1064.07 317.801 1060.23C330.934 1057.76 343.847 1051.55 352.851 1040.41C359.682 1032.16 362.918 1020.02 360.068 1009.98C357.394 999.953 350.867 992.723 343.722 987.208Z" fill="url(#paint7_radial_18_13)"/>
<path d="M1236.94 709.342C1236.94 709.342 1236.94 709.342 1236.94 709.342C1240.09 701.974 1246.47 697.091 1253.17 694.447C1266.09 689.325 1280.22 692.645 1288.43 701.142C1318.2 726.123 1255.94 751.309 1244.93 803.691C1241.94 818.261 1245.37 834.605 1252.67 846.784C1268.43 870.637 1251.1 901.815 1221.52 916.01C1192.33 930.923 1155.6 932.61 1121.22 923.861C1113.65 921.958 1106.2 919.604 1098.72 916.748C1105.44 921.106 1112.34 924.989 1119.58 928.412C1152.44 944.025 1192.79 949.542 1230.09 935.621C1248.46 928.629 1266.4 916.613 1277.56 897.538C1289.2 878.754 1289.05 851.675 1277.83 832.639C1273.55 824.672 1272.24 817.218 1273.76 809.081C1276.59 793.498 1289.76 776.945 1302.23 758.538C1308.31 749.055 1315.42 739.063 1317.65 724.218C1320.37 708.343 1308.89 693.818 1298.68 687.913C1283.49 677.555 1262.86 678.861 1249.92 688.731C1243.01 693.798 1237.78 701.343 1236.94 709.342Z" fill="url(#paint8_radial_18_13)"/>
<path d="M628.983 227.081C635.427 213.985 634.595 196.954 627.946 182.817C618.279 162.019 598.974 146.141 576.194 140.067C555.818 134.31 530.367 138.154 513.939 153.928C497.391 169.412 490.637 190.258 487.338 210.071C486.231 216.861 484.811 223.658 482.841 227.87C482.614 228.341 482.424 228.686 482.23 228.984C482.064 229.241 481.968 229.317 482.099 229.188C482.261 229.043 482.624 228.708 483.47 228.392C484.271 228.089 485.226 228.05 485.725 228.129C486.263 228.209 486.346 228.294 486.236 228.236C486.105 228.175 485.804 228.006 485.422 227.74C484.567 227.143 483.646 226.358 482.53 225.301C473.848 216.705 464.647 204.349 453.458 194.163C442.366 183.926 428.111 174.262 410.877 172.072C393.557 169.762 377.021 175.859 363.864 184.258C338.966 199.89 315.46 222.029 304.452 251.474C292.468 280.061 298.295 314.276 290.143 333.527C281.572 356.196 249.577 341.489 226.303 326.089C210.831 316.188 191.504 309.145 170.955 313.411C149.946 317.533 135.183 336.014 129.147 353.301C128.249 355.7 127.498 358.069 126.859 360.555C121.212 380.242 127.951 408.942 152.192 415.899C171.399 420.502 185.149 406.641 191.696 394.479C180.424 403.447 165.802 408.143 156.942 402.656C145.577 396.097 142.94 379.717 146.713 365.649C147.16 363.909 147.692 362.227 148.34 360.499C157.242 330.51 189.98 325.609 215.167 343.299C228.3 351.646 241.972 359.897 258.954 364.174C267.38 366.157 277.394 367.044 287.329 363.169C297.347 359.35 304.524 350.817 308.477 342.694C320.767 308.783 312.922 283.095 323.602 258.784C332.542 234.826 352.004 215.933 374.824 201.58C396.57 186.66 420.601 190.421 439.576 209.245C449.383 218.121 457.161 228.87 468.412 240.161C471.751 242.922 474.188 246.616 483.006 248.446C487.521 249.318 493.613 246.871 496.22 244.046C498.896 241.477 500.363 238.699 501.321 236.738C505.227 227.99 506.208 221.049 507.573 213.344C511.445 178.073 537.897 149.452 571.018 159.901C588.229 164.501 604.849 174.828 616.518 189.579C624.432 199.686 629.869 212.501 628.983 227.081Z" fill="#D83563"/>
<path d="M868.357 494.429C873.895 490.428 879.434 486.427 884.973 482.426C889.146 488.225 893.267 494.049 897.384 499.923C913.43 523.046 929.425 545.907 943.648 571.188C954.691 591.094 968.346 612.964 971.861 639.326C976.159 665.844 963.707 694.08 945.314 711.454C925.465 732.486 891.877 736.239 866.967 725.873C837.101 714.665 812.639 683.145 818.383 651.217C819.751 643.652 822.837 636.668 827.037 630.756C827.037 630.756 827.037 630.756 827.037 630.756C825.294 637.807 824.853 644.856 825.692 651.498C829.44 678.562 851.26 697.573 874.336 706.746C894.064 714.615 916.647 711.734 930.82 696.96V696.96C965.463 666.487 950.886 620.389 925.653 581.003V581.003C912.511 557.606 896.405 534.433 880.595 511.684C876.531 505.885 872.413 500.065 868.357 494.429Z" fill="url(#paint9_linear_18_13)"/>
<path d="M822.126 640.122C823.123 639.572 824.12 639.022 825.117 638.472C826.998 641.053 829.041 643.284 831.225 645.136C836.488 649.774 842.901 651.608 847.326 649.904C860.984 643.942 859.251 620.479 854.588 603.414C848.011 578.395 832.259 555.524 813.993 535.269C811.982 533.051 809.888 530.812 807.708 528.554C812.623 523.808 817.538 519.062 822.454 514.316C824.781 516.727 827.023 519.123 829.181 521.504C848.753 543.345 866.356 568.003 874.448 598.344C879.426 618.933 879.495 652.395 849.595 661.13C839.071 662.578 830.938 655.665 826.701 649.044C824.862 646.232 823.406 643.262 822.126 640.122Z" fill="url(#paint10_linear_18_13)"/>
<g filter="url(#filter1_d_18_13)">
<path d="M280.144 502.61C280.128 508.005 284.377 512.547 288.657 515.672C309.353 529.054 334.6 531.359 358.781 529.412C382.277 526.905 410.86 518.322 422.825 491.251C428.733 477.181 427.113 461.811 422.778 448.999C420.098 440.996 417.65 433.101 416.268 425.512C415.593 421.701 415.251 417.997 415.675 415.334C415.902 413.968 416.212 413.377 416.383 413.084C416.519 412.793 417.177 412.342 418.544 412.2C431.88 412.274 449.029 422.454 466.032 425.333C471.194 426.181 477.064 426.533 481.705 424.035C481.705 424.035 481.705 424.035 481.705 424.035C476.67 425.413 471.528 423.936 466.876 422.199C450.858 416.334 439.464 404.176 418.428 400.674C415.631 400.548 411.799 401.105 408.657 403.511C405.444 405.975 403.924 409.201 403.049 412.164C401.491 417.94 401.76 422.541 402.107 427.31C402.955 436.57 405.013 445.111 407.396 453.732C410.451 464.669 410.896 475.61 407.055 484.686C389.612 518.587 331.289 526.243 290.319 512.884C285.903 510.793 281.346 507.8 280.144 502.61Z" fill="#EB527E"/>
<path d="M1118.96 474.547C1118.96 474.547 1118.96 474.547 1118.96 474.547C1114.26 474.014 1109.17 472.693 1105.51 468.624C1100.3 462.836 1101.71 453.865 1104.76 447.654C1107.89 441.151 1112.61 435.67 1118.49 431.33C1124.37 427.136 1131.85 423.545 1140.91 424.85C1150.24 426.132 1157.09 434.154 1159.96 441.296C1167.02 466.109 1151.1 480.461 1142.53 494.436C1130.11 511.887 1116 527.996 1110.22 545.969C1103.38 563.804 1116.34 582.084 1134 593.572C1138.2 596.411 1141.68 598.637 1146.18 601.166C1146.18 601.166 1146.18 601.166 1146.18 601.166C1141.23 599.684 1137.26 598.426 1132.46 596.426C1113.17 589.79 1090.43 568.691 1096.96 542.834C1102.07 519.069 1116.65 501.618 1128.66 484.468C1137.89 471.517 1149.06 456.125 1146.06 446.735C1144.04 424.91 1101.36 444.643 1108.14 466.721C1110.15 470.411 1114.49 472.956 1118.96 474.547Z" fill="#F06089"/>
<path d="M309.779 842.649C309.779 842.649 309.779 842.649 309.779 842.649C313.024 839.091 314.656 834.103 315.596 829.268C318.297 809.862 315.435 783.008 289.494 773.718C262.273 769.305 245.952 789.35 232.566 804.175C230.606 806.531 228.715 808.672 226.749 810.765C213.222 825.264 195.82 836.715 177.47 834.755C159.889 833.362 140.116 816.026 145.182 795.697C146.431 791.4 149.127 787.402 152.763 784.211C152.763 784.211 152.763 784.211 152.763 784.211C148.495 786.458 144.66 789.905 142.195 794.428C131.09 816.663 151.083 843.524 175.196 848.187C200.394 853.625 224.035 838.865 239.197 822.463C241.449 820.065 243.571 817.621 245.73 814.946C257.433 800.593 272.276 785.045 286.765 786.533C301.434 788.499 311.661 810.371 312.362 828.995C312.451 833.607 312.054 838.45 309.779 842.649Z" fill="#C41346"/>
<path d="M647.396 244.162C650.466 246.02 653.292 247.942 655.943 249.991C668.45 258.962 675.731 273.299 669.301 283.354C663.527 293.666 650.071 299.726 637.66 299.494C635.7 299.47 633.735 299.304 631.771 298.991C626.247 297.94 624.12 296.701 622.185 292.173C620.277 287.49 620.156 280.566 618.843 272.668C618.032 268.799 617.198 263.54 612.116 259.434C606.759 255.587 601.544 256.57 597.652 257.432C589.955 259.493 583.615 263.29 577.515 267.173C574.356 269.182 571.877 271.002 568.821 273.201C572.394 272.016 575.336 271.176 578.862 270.125C585.636 268.224 592.788 266.335 598.918 266.228C602.053 266.121 604.602 267.034 604.882 267.927C605.33 268.618 605.855 270.959 605.861 274.082C606.012 280.339 604.78 287.958 607.178 296.991C609.058 306.546 620.093 314.832 628.859 315.736C631.708 316.261 634.581 316.539 637.448 316.575C655.67 316.771 674.761 307.121 681.832 288.698C685.347 279.576 683.45 268.467 677.872 261.403C672.367 254.121 664.953 250.002 657.513 247.151C654.234 245.926 650.894 244.965 647.396 244.162Z" fill="#F8779C"/>
<path d="M1199.13 816.91C1199.14 822.305 1194.9 826.847 1190.62 829.972C1169.92 843.354 1144.67 845.659 1120.49 843.711C1097 841.205 1068.41 832.622 1056.45 805.551C1050.54 791.481 1052.16 776.111 1056.49 763.299C1059.17 755.295 1061.62 747.401 1063 739.812C1063.68 736.001 1064.02 732.297 1063.6 729.634C1063.37 728.268 1063.06 727.677 1062.89 727.383C1062.75 727.093 1062.1 726.642 1060.73 726.5C1047.39 726.574 1030.24 736.754 1013.24 739.633C1008.08 740.48 1002.21 740.832 997.567 738.335C997.567 738.335 997.567 738.335 997.567 738.335C1002.6 739.713 1007.74 738.236 1012.4 736.499C1028.41 730.634 1039.81 718.475 1060.84 714.974C1063.64 714.848 1067.47 715.405 1070.62 717.811C1073.83 720.275 1075.35 723.501 1076.22 726.463C1077.78 732.24 1077.51 736.841 1077.17 741.61C1076.32 750.87 1074.26 759.411 1071.88 768.032C1068.82 778.969 1068.38 789.91 1072.22 798.986C1089.66 832.887 1147.98 840.543 1188.95 827.184C1193.37 825.093 1197.93 822.099 1199.13 816.91Z" fill="#D32D5C"/>
<path d="M897.199 860.64C898.929 863.479 900.383 866.171 901.726 868.986C919.408 898.648 885.104 909.05 862.908 903.724C860.851 903.238 858.929 902.599 857.348 901.847C833.691 890.681 802.856 887.818 816.998 859.579C818.173 856.725 819.523 853.925 821.087 851.032C821.087 851.032 821.087 851.032 821.087 851.032C818.63 853.219 816.369 855.422 814.243 857.864C809.966 862.908 805.873 868.815 805.206 876.823C804.402 884.991 809.626 893.108 815.186 897.758C826.543 907.356 839.39 911.515 849.726 916.999C852.803 918.585 855.897 919.614 858.976 920.347C875.247 923.693 891.798 921.55 905.651 910.971C912.497 905.737 917.217 895.715 915.528 887.189C914.117 878.725 909.353 872.334 904.387 867.128C902.121 864.782 899.786 862.729 897.199 860.64Z" fill="#D4154D"/>
<path d="M132.551 595.263C130.595 597.952 128.927 600.517 127.358 603.213C107.317 631.335 140.659 644.499 163.215 641C165.305 640.684 167.273 640.203 168.909 639.582C193.399 630.383 224.364 630.043 212.571 600.745C211.633 597.805 210.515 594.904 209.193 591.893C209.193 591.893 209.193 591.893 209.193 591.893C211.463 594.273 213.537 596.653 215.457 599.26C219.308 604.636 222.907 610.857 222.919 618.893C223.053 627.099 217.186 634.763 211.265 638.944C199.163 647.584 186.019 650.682 175.271 655.306C172.075 656.636 168.907 657.408 165.779 657.888C149.289 659.897 132.968 656.411 120.024 644.738C113.627 638.963 109.74 628.59 112.119 620.23C114.215 611.909 119.484 605.929 124.857 601.144C127.308 598.991 129.802 597.135 132.551 595.263Z" fill="#D71950"/>
<path d="M891.662 322.737C891.662 322.737 891.662 322.737 891.662 322.737C895.692 322.304 900.085 320.968 903.198 317.431C918.971 286.772 864.769 260.719 844.621 290.225C835.697 299.236 831.742 315.147 836.112 327.541C853.597 369.128 897.609 381.644 934.083 379.319C938.222 378.941 942.317 378.303 946.323 377.398C946.323 377.398 946.323 377.398 946.323 377.398C942.222 377.168 938.174 376.717 934.188 376.075C899.444 370.035 863.291 350.433 852.435 322.507C849.995 314.707 851.373 307.366 856.712 300.589C863.378 291.87 872.826 287.524 883.319 290.978C893.036 294.071 904.936 304.722 900.533 315.578C898.973 318.786 895.449 321.232 891.662 322.737Z" fill="#F8789D"/>
</g>
<defs>
<filter id="filter0_g_18_13" x="375.493" y="568.026" width="602.636" height="247.34" filterUnits="userSpaceOnUse" color-interpolation-filters="sRGB">
<feFlood flood-opacity="0" result="BackgroundImageFix"/>
<feBlend mode="normal" in="SourceGraphic" in2="BackgroundImageFix" result="shape"/>
<feTurbulence type="fractalNoise" baseFrequency="0.99900001287460327 0.99900001287460327" numOctaves="3" seed="5062" />
<feDisplacementMap in="shape" scale="79.941459655761719" xChannelSelector="R" yChannelSelector="G" result="displacedImage" width="100%" height="100%" />
<feMerge result="effect1_texture_18_13">
<feMergeNode in="displacedImage"/>
</feMerge>
</filter>
<filter id="filter1_d_18_13" x="102.189" y="241.771" width="1106.16" height="696.088" filterUnits="userSpaceOnUse" color-interpolation-filters="sRGB">
<feFlood flood-opacity="0" result="BackgroundImageFix"/>
<feColorMatrix in="SourceAlpha" type="matrix" values="0 0 0 0 0 0 0 0 0 0 0 0 0 0 0 0 0 0 127 0" result="hardAlpha"/>
<feOffset dy="6.8326"/>
<feGaussianBlur stdDeviation="4.61201"/>
<feComposite in2="hardAlpha" operator="out"/>
<feColorMatrix type="matrix" values="0 0 0 0 0 0 0 0 0 0 0 0 0 0 0 0 0 0 0.05 0"/>
<feBlend mode="normal" in2="BackgroundImageFix" result="effect1_dropShadow_18_13"/>
<feBlend mode="normal" in="SourceGraphic" in2="effect1_dropShadow_18_13" result="shape"/>
</filter>
<linearGradient id="paint0_linear_18_13" x1="698.641" y1="380.814" x2="718.379" y2="789.296" gradientUnits="userSpaceOnUse">
<stop offset="0.36" stop-color="#FF8DAE"/>
<stop offset="1" stop-color="#D83563"/>
</linearGradient>
<linearGradient id="paint1_linear_18_13" x1="698.641" y1="380.814" x2="718.379" y2="789.296" gradientUnits="userSpaceOnUse">
<stop offset="0.36" stop-color="#FF8DAE"/>
<stop offset="1" stop-color="#D83563"/>
</linearGradient>
<linearGradient id="paint2_linear_18_13" x1="698.641" y1="380.814" x2="718.379" y2="789.296" gradientUnits="userSpaceOnUse">
<stop offset="0.36" stop-color="#FF8DAE"/>
<stop offset="1" stop-color="#D83563"/>
</linearGradient>
<linearGradient id="paint3_linear_18_13" x1="726.347" y1="198.042" x2="458.168" y2="1304.92" gradientUnits="userSpaceOnUse">
<stop stop-color="#FF8DAE"/>
<stop offset="0.552885" stop-color="#D6164D"/>
<stop offset="0.889423" stop-color="#990C35"/>
</linearGradient>
<radialGradient id="paint4_radial_18_13" cx="0" cy="0" r="1" gradientUnits="userSpaceOnUse" gradientTransform="translate(442.704 656.379) rotate(90) scale(68.326 71.7423)">
<stop stop-color="#922C49"/>
<stop offset="1" stop-color="#C01D4C"/>
</radialGradient>
<radialGradient id="paint5_radial_18_13" cx="0" cy="0" r="1" gradientUnits="userSpaceOnUse" gradientTransform="translate(1216.69 496.694) rotate(74.5464) scale(176.051 73.721)">
<stop stop-color="#922C49"/>
<stop offset="1" stop-color="#C01D4C"/>
</radialGradient>
<linearGradient id="paint6_linear_18_13" x1="756.718" y1="420.102" x2="604.692" y2="628.496" gradientUnits="userSpaceOnUse">
<stop stop-color="#D83563"/>
<stop offset="1" stop-color="#C01D4B"/>
</linearGradient>
<radialGradient id="paint7_radial_18_13" cx="0" cy="0" r="1" gradientUnits="userSpaceOnUse" gradientTransform="translate(182.661 732.243) rotate(90) scale(318.974 172.406)">
<stop stop-color="#922C49"/>
<stop offset="1" stop-color="#C01D4C"/>
</radialGradient>
<radialGradient id="paint8_radial_18_13" cx="0" cy="0" r="1" gradientUnits="userSpaceOnUse" gradientTransform="translate(1202.92 811.268) rotate(90) scale(124.695 104.197)">
<stop stop-color="#922C49"/>
<stop offset="1" stop-color="#C01D4C"/>
</radialGradient>
<linearGradient id="paint9_linear_18_13" x1="915.576" y1="604.582" x2="766.789" y2="904.478" gradientUnits="userSpaceOnUse">
<stop stop-color="#BE1E4C"/>
<stop offset="1" stop-color="#C01D4C"/>
</linearGradient>
<linearGradient id="paint10_linear_18_13" x1="796.602" y1="531.895" x2="811.378" y2="635.329" gradientUnits="userSpaceOnUse">
<stop stop-color="#D83563"/>
<stop offset="1" stop-color="#BF1F4D"/>
</linearGradient>
</defs>
</svg>
